<?xml version="1.0" encoding="utf-8"?>
<!-- Generator: Adobe Illustrator 22.0.0, SVG Export Plug-In . SVG Version: 6.00 Build 0)  -->
<!DOCTYPE svg PUBLIC "-//W3C//DTD SVG 1.1//EN" "http://www.w3.org/Graphics/SVG/1.1/DTD/svg11.dtd">
<svg version="1.1" id="Ebene_1" xmlns="http://www.w3.org/2000/svg" xmlns:xlink="http://www.w3.org/1999/xlink" x="0px" y="0px"
	 viewBox="0 0 566.9 231.5" style="enable-background:new 0 0 566.9 231.5;" xml:space="preserve">
<style type="text/css">
	.st0{fill:#878787;}
	.st1{fill:#1A70B8;}
</style>
<g>
	<path class="st0" d="M176,109.4c16.4-7.1,28.6-19.8,28.6-41.3v-0.5c0-12.7-4.5-22.5-11.9-29.9C181.8,26.8,165.4,21,142.1,21h-95
		v41.2h83.4c15.3,0,23.3,5.8,23.3,15.9v0.5c0,10.8-8.7,16.1-24.3,16.1H47.2v35.9h89.2c17.2,0,25.1,6.6,25.1,16.7v0.5
		c0,10.8-9,16.9-24.6,16.9H47.1V206h95.5c44.2,0,70.1-19.3,70.1-51.1v-0.5C212.8,129.5,198.5,116.8,176,109.4z"/>
	<polygon class="st1" points="353.5,21 292.7,21 225.2,103.1 249,137.5 294.5,206.3 356.2,206.3 284.7,100.7 	"/>
	<rect x="377.9" y="21" class="st0" width="150.3" height="43.7"/>
	<g>
		<polygon class="st0" points="479.3,133.2 479.3,92.7 377.9,92.7 377.9,133.2 		"/>
		<rect x="377.9" y="162.6" class="st0" width="150.3" height="43.7"/>
	</g>
</g>
</svg>
